# xmcd
#
# Track frame offsets: 
#        150
#        11280
#        23542
#        35307
#        46102
#        58885
#        71032
#        82820
#        93897
#        107457
#        119875
#        129822
#        140127
#        152315
#        163505
#        174377
#        186880
#        198202
#        210942
#        223167
#
# Disc length: 3196 seconds
#
# Revision: 6
# Processed by: cddbd v1.5.2PL0 Copyright (c) Steve Scherf et al.
# Submitted via: ExactAudioCopyFreeDBPlugin 1.0
#
DISCID=fd0c7a14
DTITLE=Eddy Arnold - The Essential Eddy Arnold
DYEAR=1996
DGENRE=Country
TTITLE0=It's A Sin
TTITLE1=I'll Hold You In My Heart (Till I Can Hold You In My Arms)
TTITLE2=Don't Rob Another Man's Castle
TTITLE3=Eddy's Song
TTITLE4=I Really Don't Want To Know (Remake)
TTITLE5=Make The World Go Away
TTITLE6=Molly Darling
TTITLE7=Just Call Me Lonesome
TTITLE8=The Tip Of My Fingers
TTITLE9=Cattle Call
TTITLE10=What's He Doing In My World
TTITLE11=Anytime
TTITLE12=I Want To Go With You
TTITLE13=Somebody Like Me
TTITLE14=Take Me In Your Arms And Hold Me
TTITLE15=Lonely Again
TTITLE16=Turn The World  Around
TTITLE17=Then You Can Tell Me Goodbye
TTITLE18=That's What I Get For Loving You
TTITLE19=You Don't Miss A Thing
EXTD=
EXTT0=
EXTT1=
EXTT2=
EXTT3=
EXTT4=
EXTT5=
EXTT6=
EXTT7=
EXTT8=
EXTT9=
EXTT10=
EXTT11=
EXTT12=
EXTT13=
EXTT14=
EXTT15=
EXTT16=
EXTT17=
EXTT18=
EXTT19=
PLAYORDER=
